<?xml version="1.0" encoding="iso-8859-1"?>
<!-- Generator: Adobe Illustrator 16.0.0, SVG Export Plug-In . SVG Version: 6.00 Build 0)  -->
<!DOCTYPE svg PUBLIC "-//W3C//DTD SVG 1.1//EN" "http://www.w3.org/Graphics/SVG/1.1/DTD/svg11.dtd">
<svg version="1.1" id="Capa_1" xmlns="http://www.w3.org/2000/svg" xmlns:xlink="http://www.w3.org/1999/xlink" x="0px" y="0px"
	 width="46.8px" height="46.8px" viewBox="0 0 46.8 46.8" style="enable-background:new 0 0 46.8 46.8;" xml:space="preserve">
<g>
	<g>
		<path d="M23.643,0.011c-0.02-0.001-0.04,0.007-0.061,0.007C23.518,0.013,23.468-0.003,23.393,0
			C14.616,0.591,7.66,7.127,7.414,16.113c-0.142,5.202,3.815,9.191,6.997,12.81c2.381,2.707,4.048,5.497,5.379,8.866
			c1.09,2.757,1.373,5.825,2.565,8.51c0.341,0.768,1.576,0.596,1.896-0.122c2.508-5.628,2.864-11.13,6.908-16.183
			c3.232-4.04,6.882-7.259,7.97-12.514C41.05,8.214,32.001,0.573,23.643,0.011z M24.07,40.792c-0.046,0.17-0.093,0.34-0.14,0.51
			c-0.146,0.532-0.378,1.071-0.511,1.205c-0.133,0.135-0.334-0.059-0.445-0.433s0.117-0.998,0.506-1.392
			c0.049-0.049,0.098-0.098,0.146-0.146C24.015,40.145,24.215,40.259,24.07,40.792z M25.22,36.856
			c-0.216,0.628-0.41,1.262-0.593,1.897c-0.152,0.531-0.576,1.288-0.957,1.688c-0.069,0.071-0.138,0.145-0.206,0.217
			c-0.381,0.398-0.811,0.296-0.959-0.231c-0.148-0.527,0.039-1.283,0.416-1.687c0.653-0.697,1.306-1.396,1.958-2.094
			C25.256,36.244,25.398,36.335,25.22,36.856z M34.432,23.574c-2.378,3.372-5.474,6.082-7.598,9.657
			c-0.165,0.278-0.317,0.561-0.462,0.844c-0.239,0.475-0.586,0.521-0.815,0.099c-0.229-0.422-0.746-0.435-1.136-0.044
			c-0.431,0.435-0.861,0.869-1.293,1.308c-0.298,0.303-0.601,0.604-0.904,0.903c-0.392,0.389-0.847,0.277-1.033-0.242
			c-0.197-0.553-0.412-1.1-0.652-1.638c-0.08-0.179-0.165-0.354-0.253-0.526c-0.147-0.288,0.045-0.836,0.435-1.228
			c0.504-0.505,1.011-1.014,1.523-1.525c0.391-0.392,0.59-0.849,0.445-1.021s-0.594-0.007-1.002,0.364
			c-0.501,0.458-0.981,0.897-1.441,1.319c-0.407,0.374-0.965,0.292-1.268-0.17c-0.146-0.222-0.295-0.441-0.447-0.659
			c-0.317-0.452-0.264-1.115,0.138-1.494c0.394-0.37,0.784-0.738,1.173-1.105c0.401-0.379,0.715-0.7,0.7-0.717
			c-0.016-0.018-0.348,0.282-0.743,0.669c-0.385,0.377-0.769,0.753-1.153,1.128c-0.394,0.387-0.985,0.342-1.331-0.089
			c-0.271-0.339-0.546-0.672-0.826-1.003c-0.356-0.423-0.321-1.062,0.085-1.437c0.386-0.354,0.771-0.71,1.156-1.066
			c0.406-0.374,0.521-0.948,0.269-1.288c-0.254-0.342-0.776-0.32-1.182,0.056c-0.414,0.385-0.829,0.771-1.244,1.155
			c-0.405,0.376-0.973,0.407-1.268,0.071c-0.294-0.337-0.204-0.916,0.2-1.293c0.48-0.447,0.962-0.897,1.443-1.348
			c0.403-0.377,0.685-0.761,0.631-0.858c-0.056-0.098-0.414,0.138-0.804,0.528c-0.461,0.462-0.95,0.951-1.46,1.462
			c-0.391,0.393-0.802,0.599-0.919,0.464c-0.07-0.081-0.142-0.163-0.211-0.245c-0.269-0.316-0.52-0.639-0.757-0.965
			c-0.324-0.447-0.249-1.149,0.136-1.546c0.707-0.729,1.412-1.456,2.114-2.179c0.385-0.396,0.638-0.99,0.589-1.33
			c-0.05-0.34-0.391-0.303-0.782,0.087c-0.835,0.832-1.657,1.65-2.471,2.46c-0.392,0.39-0.922,0.312-1.146-0.191
			c-0.232-0.521-0.428-1.047-0.59-1.576c-0.161-0.528,0.061-1.28,0.453-1.669c1.438-1.417,2.875-2.836,4.312-4.253
			c0.394-0.388,0.834-1.135,1.021-1.654c0.301-0.838,0.672-1.642,1.107-2.404c0.273-0.479,0.212-0.53-0.173-0.135
			c-2.188,2.25-4.37,4.503-6.554,6.755c-0.385,0.396-0.737,0.337-0.754-0.136c-0.018-0.473,0.311-1.174,0.698-1.566
			c0.665-0.674,1.701-1.73,3.201-3.259c3.141-3.227,5.866-6.03,8.301-8.534c0.386-0.396,0.252-0.664-0.29-0.559
			c-0.235,0.046-0.469,0.098-0.7,0.154c-0.536,0.131-1.292,0.571-1.699,0.945c-0.52,0.479-1.034,0.952-1.537,1.415
			c-2.228,2.188-4.501,4.422-6.796,6.679c-0.394,0.388-0.599,0.269-0.415-0.253c1.662-4.704,5.895-8.49,11.727-9.265
			c0.548-0.073,1.331-0.077,1.742-0.024c0.411,0.052,0.674,0.105,0.591,0.099c-0.084-0.007-0.464,0.312-0.85,0.707
			c-0.424,0.435-0.849,0.87-1.273,1.305c-0.385,0.396-0.332,0.457,0.14,0.17c0.715-0.436,1.468-0.815,2.253-1.13
			c0.513-0.206,1.018-0.429,1.115-0.538c0.099-0.108,0.61-0.085,1.135,0.092C35.691,5.23,40.282,15.283,34.432,23.574z
			 M9.691,14.833c0.004-0.088,0.32-0.479,0.706-0.875c4.748-4.856,8.319-8.466,9.64-9.714c3.732-3.755-6.42,6.677-9.657,10.027
			C9.996,14.668,9.688,14.92,9.691,14.833z"/>
		<path d="M28.818,15.742c0.006-0.077,0.338-0.443,0.741-0.82c0.651-0.605,1.304-1.211,1.953-1.817
			c0.404-0.376,0.387-0.882-0.078-1.029c-0.464-0.146-1.188,0.122-1.593,0.498c-0.166,0.153-0.332,0.308-0.498,0.461
			c-0.404,0.376-0.874,0.25-1.165-0.22c-0.94-1.518-2.727-2.538-4.536-2.636c-2.925-0.157-5.345,2.031-5.802,4.838
			c-0.503,3.09,2.3,5.547,5.157,5.701c0.012,0,0.023-0.002,0.035-0.004c0.019-0.003,0.074,0,0.123,0.008
			c0.028,0.005,0.058,0.008,0.092,0.006c2.845-0.152,5.089-1.998,5.553-4.845C28.809,15.834,28.813,15.789,28.818,15.742z
			 M24.461,19.006c-0.523,0.177-1.432,0.164-1.95-0.025c-3.292-1.2-3.9-6.595,0.246-7.269
			C27.101,11.004,28.242,17.733,24.461,19.006z"/>
		<path d="M28.101,20.422c0.062,0.035,0.439-0.249,0.84-0.63c1.598-1.518,3.137-2.983,4.606-4.387c0.4-0.381,0.7-0.75,0.667-0.822
			c-0.032-0.071-0.38,0.183-0.775,0.568c-1.142,1.114-2.277,2.227-3.403,3.332c-0.395,0.387-0.396,0.386-0.002-0.001
			c1.077-1.06,2.264-2.227,3.398-3.344c0.395-0.387,0.707-0.716,0.697-0.732c-0.01-0.017-0.336,0.282-0.732,0.668
			c-1.577,1.543-3.144,3.073-4.692,4.587C28.309,20.047,28.039,20.387,28.101,20.422z"/>
		<path d="M34.078,17.03c0.271-0.24,0.491-0.453,0.494-0.477c0.003-0.023-0.218,0.17-0.489,0.435
			C33.81,17.25,33.808,17.27,34.078,17.03z"/>
	</g>
</g>
<g>
</g>
<g>
</g>
<g>
</g>
<g>
</g>
<g>
</g>
<g>
</g>
<g>
</g>
<g>
</g>
<g>
</g>
<g>
</g>
<g>
</g>
<g>
</g>
<g>
</g>
<g>
</g>
<g>
</g>
</svg>
